<svg xmlns="http://www.w3.org/2000/svg" version="1.1" xmlns:xlink="http://www.w3.org/1999/xlink" xmlns:svgjs="http://svgjs.com/svgjs" width="512" height="512" x="0" y="0" viewBox="0 0 682.667 682.667" style="enable-background:new 0 0 512 512" xml:space="preserve" class=""><g><defs><clipPath id="a" clipPathUnits="userSpaceOnUse"><path d="M0 512h512V0H0Z" fill="#000000" data-original="#000000"></path></clipPath></defs><g clip-path="url(#a)" transform="matrix(1.33333 0 0 -1.33333 0 682.667)"><path d="M0 0c0-34.336-27.633-62.171-61.72-62.171S-123.439-34.336-123.439 0s27.632 62.171 61.719 62.171S0 34.336 0 0" style="fill-opacity:1;fill-rule:nonzero;stroke:none" transform="translate(504.5 414.353)" fill="#62dbfb" data-original="#62dbfb"></path><path d="M0 0c0-34.336-27.633-62.171-61.72-62.171S-123.439-34.336-123.439 0s27.632 62.171 61.719 62.171S0 34.336 0 0" style="fill-opacity:1;fill-rule:nonzero;stroke:none" transform="translate(504.5 256)" fill="#fe93d3" data-original="#fe93d3"></path><path d="M0 0c0-34.336-27.633-62.171-61.72-62.171S-123.439-34.336-123.439 0s27.632 62.171 61.719 62.171S0 34.336 0 0" style="fill-opacity:1;fill-rule:nonzero;stroke:none" transform="translate(504.5 97.647)" fill="#6fd7a3" data-original="#6fd7a3"></path><path d="M0 0h-206.507c-17.053 0-30.877 13.824-30.877 30.877v435.246c0 17.053 13.824 30.877 30.877 30.877H0c17.053 0 30.877-13.824 30.877-30.877V30.877C30.877 13.824 17.053 0 0 0" style="fill-opacity:1;fill-rule:nonzero;stroke:none" transform="translate(244.884 7.5)" fill="#c8effe" data-original="#c8effe" class=""></path><path d="M0 0h-40C-22.947 0-9.123-13.824-9.123-30.877v-435.246C-9.123-483.176-22.947-497-40-497H0c17.053 0 30.877 13.824 30.877 30.877v435.246C30.877-13.824 17.053 0 0 0" style="fill-opacity:1;fill-rule:nonzero;stroke:none" transform="translate(244.884 504.5)" fill="#99e6fc" data-original="#99e6fc"></path><path d="m0 0 268.262 150.62v-358.402c0-16.965-13.753-30.718-30.718-30.718H30.718C13.753-238.5 0-224.747 0-207.782Z" style="fill-opacity:1;fill-rule:nonzero;stroke:none" transform="translate(7.5 246)" fill="#faf7f7" data-original="#faf7f7"></path><path d="M0 0v-335.943c0-16.965-13.753-30.718-30.718-30.718h40c16.965 0 30.718 13.753 30.718 30.718V22.458Z" style="fill-opacity:1;fill-rule:nonzero;stroke:none" transform="translate(235.762 374.161)" fill="#f9f3f1" data-original="#f9f3f1"></path><path d="M0 0c0-13.661-11.075-24.735-24.735-24.735-13.661 0-24.736 11.074-24.736 24.735s11.075 24.735 24.736 24.735C-11.075 24.735 0 13.661 0 0" style="fill-opacity:1;fill-rule:nonzero;stroke:none" transform="translate(166.366 68.841)" fill="#62dbfb" data-original="#62dbfb"></path><path d="M0 0h-56.751a20 20 0 0 0-17.843 10.965L-89.042 39.5H32.291L17.843 10.965A19.999 19.999 0 0 0 0 0" style="fill-opacity:1;fill-rule:nonzero;stroke:none" transform="translate(170.006 465)" fill="#62dbfb" data-original="#62dbfb"></path><path d="M0 0v68.057a23.944 23.944 0 0 1-12.028 20.768l-59.547 34.16a23.942 23.942 0 0 1-23.828 0l-59.546-34.16a23.945 23.945 0 0 1-12.029-20.768V0c0-8.577 4.589-16.5 12.029-20.768l59.546-34.16a23.942 23.942 0 0 1 23.828 0l59.547 34.16A23.943 23.943 0 0 1 0 0" style="fill-opacity:1;fill-rule:nonzero;stroke:none" transform="translate(225.12 286.142)" fill="#fedf30" data-original="#fedf30"></path><path d="M0 0c0-34.336-27.633-62.171-61.72-62.171S-123.439-34.336-123.439 0s27.632 62.171 61.719 62.171S0 34.336 0 0Z" style="stroke-width:15;stroke-linecap:round;stroke-linejoin:round;stroke-miterlimit:10;stroke-dasharray:none;stroke-opacity:1" transform="translate(504.5 414.353)" fill="none" stroke="#000000" stroke-width="15" stroke-linecap="round" stroke-linejoin="round" stroke-miterlimit="10" stroke-dasharray="none" stroke-opacity="" data-original="#000000"></path><path d="m0 0 18.051 47.742c.369.908 1.645.91 2.016.002L37.954 0" style="stroke-width:15;stroke-linecap:round;stroke-linejoin:round;stroke-miterlimit:10;stroke-dasharray:none;stroke-opacity:1" transform="translate(423.803 390.14)" fill="none" stroke="#000000" stroke-width="15" stroke-linecap="round" stroke-linejoin="round" stroke-miterlimit="10" stroke-dasharray="none" stroke-opacity="" data-original="#000000"></path><path d="M0 0h26.786" style="stroke-width:15;stroke-linecap:round;stroke-linejoin:round;stroke-miterlimit:10;stroke-dasharray:none;stroke-opacity:1" transform="translate(429.433 402.03)" fill="none" stroke="#000000" stroke-width="15" stroke-linecap="round" stroke-linejoin="round" stroke-miterlimit="10" stroke-dasharray="none" stroke-opacity="" data-original="#000000"></path><path d="M0 0c0-34.336-27.633-62.171-61.72-62.171S-123.439-34.336-123.439 0s27.632 62.171 61.719 62.171S0 34.336 0 0Z" style="stroke-width:15;stroke-linecap:round;stroke-linejoin:round;stroke-miterlimit:10;stroke-dasharray:none;stroke-opacity:1" transform="translate(504.5 256)" fill="none" stroke="#000000" stroke-width="15" stroke-linecap="round" stroke-linejoin="round" stroke-miterlimit="10" stroke-dasharray="none" stroke-opacity="" data-original="#000000"></path><path d="M0 0c0-6.154-4.952-11.143-11.062-11.143l-13.963-.049v22.334h13.963C-4.952 11.142 0 6.153 0 0Z" style="stroke-width:15;stroke-linecap:round;stroke-linejoin:round;stroke-miterlimit:10;stroke-dasharray:none;stroke-opacity:1" transform="translate(454.843 269.07)" fill="none" stroke="#000000" stroke-width="15" stroke-linecap="round" stroke-linejoin="round" stroke-miterlimit="10" stroke-dasharray="none" stroke-opacity="" data-original="#000000"></path><path d="M0 0c0-7.199-5.793-13.034-12.939-13.034-3.545 0-16.403-.058-16.403-.058v26.126h16.403C-5.793 13.034 0 7.199 0 0Z" style="stroke-width:15;stroke-linecap:round;stroke-linejoin:round;stroke-miterlimit:10;stroke-dasharray:none;stroke-opacity:1" transform="translate(459.16 244.88)" fill="none" stroke="#000000" stroke-width="15" stroke-linecap="round" stroke-linejoin="round" stroke-miterlimit="10" stroke-dasharray="none" stroke-opacity="" data-original="#000000"></path><path d="M0 0c7.176 10.159 11.411 22.574 11.411 35.993 0 34.336-27.633 62.171-61.72 62.171s-61.72-27.835-61.72-62.171c0-34.337 27.633-62.172 61.72-62.172 6.532 0 12.823 1.03 18.731 2.924" style="stroke-width:15;stroke-linecap:round;stroke-linejoin:round;stroke-miterlimit:10;stroke-dasharray:none;stroke-opacity:1" transform="translate(493.09 61.655)" fill="none" stroke="#000000" stroke-width="15" stroke-linecap="round" stroke-linejoin="round" stroke-miterlimit="10" stroke-dasharray="none" stroke-opacity="" data-original="#000000"></path><path d="M0 0a23.8 23.8 0 0 1-13.439 4.135c-13.274 0-24.036-10.84-24.036-24.212s10.762-24.212 24.036-24.212c5.392 0 9.826 1.789 13.192 4.808a19.478 19.478 0 0 1 1.951 2.027" style="stroke-width:15;stroke-linecap:round;stroke-linejoin:round;stroke-miterlimit:10;stroke-dasharray:none;stroke-opacity:1" transform="translate(457.248 117.724)" fill="none" stroke="#000000" stroke-width="15" stroke-linecap="round" stroke-linejoin="round" stroke-miterlimit="10" stroke-dasharray="none" stroke-opacity="" data-original="#000000"></path><path d="M0 0h46" style="stroke-width:15;stroke-linecap:round;stroke-linejoin:round;stroke-miterlimit:10;stroke-dasharray:none;stroke-opacity:1" transform="translate(303.334 256)" fill="none" stroke="#000000" stroke-width="15" stroke-linecap="round" stroke-linejoin="round" stroke-miterlimit="10" stroke-dasharray="none" stroke-opacity="" data-original="#000000"></path><path d="M0 0h-23v314.544H0" style="stroke-width:15;stroke-linecap:round;stroke-linejoin:round;stroke-miterlimit:10;stroke-dasharray:none;stroke-opacity:1" transform="translate(349.334 97.647)" fill="none" stroke="#000000" stroke-width="15" stroke-linecap="round" stroke-linejoin="round" stroke-miterlimit="10" stroke-dasharray="none" stroke-opacity="" data-original="#000000"></path><path d="M0 0v-369.332c0-17.053 13.824-30.877 30.877-30.877h206.507c17.053 0 30.878 13.824 30.878 30.877V65.914c0 17.053-13.825 30.877-30.878 30.877H30.877C13.824 96.791 0 82.967 0 65.914V39.935" style="stroke-width:15;stroke-linecap:round;stroke-linejoin:round;stroke-miterlimit:10;stroke-dasharray:none;stroke-opacity:1" transform="translate(7.5 407.709)" fill="none" stroke="#000000" stroke-width="15" stroke-linecap="round" stroke-linejoin="round" stroke-miterlimit="10" stroke-dasharray="none" stroke-opacity="" data-original="#000000"></path><path d="m0 0 53.948 30.29" style="stroke-width:15;stroke-linecap:round;stroke-linejoin:round;stroke-miterlimit:10;stroke-dasharray:none;stroke-opacity:1" transform="translate(221.814 366.33)" fill="none" stroke="#000000" stroke-width="15" stroke-linecap="round" stroke-linejoin="round" stroke-miterlimit="10" stroke-dasharray="none" stroke-opacity="" data-original="#000000"></path><path d="m0 0 53.015 29.766" style="stroke-width:15;stroke-linecap:round;stroke-linejoin:round;stroke-miterlimit:10;stroke-dasharray:none;stroke-opacity:1" transform="translate(7.5 246)" fill="none" stroke="#000000" stroke-width="15" stroke-linecap="round" stroke-linejoin="round" stroke-miterlimit="10" stroke-dasharray="none" stroke-opacity="" data-original="#000000"></path><path d="M0 0c0-13.661-11.075-24.735-24.735-24.735-13.661 0-24.736 11.074-24.736 24.735s11.075 24.735 24.736 24.735C-11.075 24.735 0 13.661 0 0Z" style="stroke-width:15;stroke-linecap:round;stroke-linejoin:round;stroke-miterlimit:10;stroke-dasharray:none;stroke-opacity:1" transform="translate(166.366 68.841)" fill="none" stroke="#000000" stroke-width="15" stroke-linecap="round" stroke-linejoin="round" stroke-miterlimit="10" stroke-dasharray="none" stroke-opacity="" data-original="#000000"></path><path d="M0 0h-56.751a20 20 0 0 0-17.843 10.965L-89.042 39.5H32.291L17.843 10.965A19.999 19.999 0 0 0 0 0Z" style="stroke-width:15;stroke-linecap:round;stroke-linejoin:round;stroke-miterlimit:10;stroke-dasharray:none;stroke-opacity:1" transform="translate(170.006 465)" fill="none" stroke="#000000" stroke-width="15" stroke-linecap="round" stroke-linejoin="round" stroke-miterlimit="10" stroke-dasharray="none" stroke-opacity="" data-original="#000000"></path><path d="M0 0v68.057a23.944 23.944 0 0 1-12.028 20.768l-59.547 34.16a23.942 23.942 0 0 1-23.828 0l-59.546-34.16a23.945 23.945 0 0 1-12.029-20.768V0c0-8.577 4.589-16.5 12.029-20.768l59.546-34.16a23.942 23.942 0 0 1 23.828 0l59.547 34.16A23.943 23.943 0 0 1 0 0Z" style="stroke-width:15;stroke-linecap:round;stroke-linejoin:round;stroke-miterlimit:10;stroke-dasharray:none;stroke-opacity:1" transform="translate(225.12 286.142)" fill="none" stroke="#000000" stroke-width="15" stroke-linecap="round" stroke-linejoin="round" stroke-miterlimit="10" stroke-dasharray="none" stroke-opacity="" data-original="#000000"></path><path d="M0 0c.087 12.455 10.898 22.819 23.422 22.481C35.277 22.162 45.032 12.66 45.564.89c.59-13.043-9.938-23.784-22.929-23.694l-.113-18.505" style="stroke-width:15;stroke-linecap:round;stroke-linejoin:round;stroke-miterlimit:10;stroke-dasharray:none;stroke-opacity:1" transform="translate(118.837 339.71)" fill="none" stroke="#000000" stroke-width="15" stroke-linecap="round" stroke-linejoin="round" stroke-miterlimit="10" stroke-dasharray="none" stroke-opacity="" data-original="#000000"></path><path d="M0 0c9.652 0 9.667 15 0 15-9.652 0-9.668-15 0-15" style="fill-opacity:1;fill-rule:nonzero;stroke:none" transform="translate(141.819 264.776)" fill="#000000" data-original="#000000"></path><path d="M0 0h166.978" style="stroke-width:15;stroke-linecap:round;stroke-linejoin:round;stroke-miterlimit:10;stroke-dasharray:none;stroke-opacity:1" transform="translate(58.142 181)" fill="none" stroke="#000000" stroke-width="15" stroke-linecap="round" stroke-linejoin="round" stroke-miterlimit="10" stroke-dasharray="none" stroke-opacity="" data-original="#000000"></path><path d="M0 0h106.978" style="stroke-width:15;stroke-linecap:round;stroke-linejoin:round;stroke-miterlimit:10;stroke-dasharray:none;stroke-opacity:1" transform="translate(88.142 139)" fill="none" stroke="#000000" stroke-width="15" stroke-linecap="round" stroke-linejoin="round" stroke-miterlimit="10" stroke-dasharray="none" stroke-opacity="" data-original="#000000"></path></g></g></svg>